<?xml version="1.0" encoding="utf-8"?>
<!-- Generator: Adobe Illustrator 17.1.0, SVG Export Plug-In . SVG Version: 6.00 Build 0)  -->
<!DOCTYPE svg PUBLIC "-//W3C//DTD SVG 1.1//EN" "http://www.w3.org/Graphics/SVG/1.1/DTD/svg11.dtd">
<svg version="1.1" id="Ebene_1" xmlns="http://www.w3.org/2000/svg" xmlns:xlink="http://www.w3.org/1999/xlink" x="0px" y="0px"
	 viewBox="0 0 1052.2 112.9" enable-background="new 0 0 1052.2 112.9" xml:space="preserve">
<g>
	<g>
		<g>
			<g>
				<linearGradient id="SVGID_1_" gradientUnits="userSpaceOnUse" x1="837.3707" y1="3.5242" x2="840.3433" y2="3.5242">
					<stop  offset="0" style="stop-color:#BFBFBF"/>
					<stop  offset="0.5215" style="stop-color:#FFFFFF"/>
					<stop  offset="0.9939" style="stop-color:#BFBFBF"/>
				</linearGradient>
				<line fill="url(#SVGID_1_)" stroke="#FFFFFF" x1="840.3" y1="3.4" x2="837.4" y2="3.6"/>
				<linearGradient id="SVGID_2_" gradientUnits="userSpaceOnUse" x1="104.606" y1="23.6299" x2="831.3882" y2="23.6299">
					<stop  offset="0" style="stop-color:#BFBFBF"/>
					<stop  offset="0.5215" style="stop-color:#FFFFFF"/>
					<stop  offset="0.9939" style="stop-color:#BFBFBF"/>
				</linearGradient>
				<line fill="url(#SVGID_2_)" stroke="#FFFFFF" stroke-dasharray="8.0488,8.0488" x1="831.4" y1="3.9" x2="104.6" y2="43.3"/>
				<linearGradient id="SVGID_3_" gradientUnits="userSpaceOnUse" x1="98.6421" y1="43.575" x2="101.6148" y2="43.575">
					<stop  offset="0" style="stop-color:#BFBFBF"/>
					<stop  offset="0.5215" style="stop-color:#FFFFFF"/>
					<stop  offset="0.9939" style="stop-color:#BFBFBF"/>
				</linearGradient>
				<line fill="url(#SVGID_3_)" stroke="#FFFFFF" x1="101.6" y1="43.5" x2="98.6" y2="43.7"/>
			</g>
			<g>
				<linearGradient id="SVGID_4_" gradientUnits="userSpaceOnUse" x1="837.3707" y1="20.1121" x2="840.3433" y2="20.1121">
					<stop  offset="0" style="stop-color:#BFBFBF"/>
					<stop  offset="0.5215" style="stop-color:#FFFFFF"/>
					<stop  offset="0.9939" style="stop-color:#BFBFBF"/>
				</linearGradient>
				<line fill="url(#SVGID_4_)" stroke="#FFFFFF" x1="840.3" y1="20.1" x2="837.4" y2="20.2"/>
				<linearGradient id="SVGID_5_" gradientUnits="userSpaceOnUse" x1="104.606" y1="31.9082" x2="831.3882" y2="31.9082">
					<stop  offset="0" style="stop-color:#BFBFBF"/>
					<stop  offset="0.5215" style="stop-color:#FFFFFF"/>
					<stop  offset="0.9939" style="stop-color:#BFBFBF"/>
				</linearGradient>
				<line fill="url(#SVGID_5_)" stroke="#FFFFFF" stroke-dasharray="8.0488,8.0488" x1="831.4" y1="20.4" x2="104.6" y2="43.5"/>
				<linearGradient id="SVGID_6_" gradientUnits="userSpaceOnUse" x1="98.6421" y1="43.6084" x2="101.6148" y2="43.6084">
					<stop  offset="0" style="stop-color:#BFBFBF"/>
					<stop  offset="0.5215" style="stop-color:#FFFFFF"/>
					<stop  offset="0.9939" style="stop-color:#BFBFBF"/>
				</linearGradient>
				<line fill="url(#SVGID_6_)" stroke="#FFFFFF" x1="101.6" y1="43.6" x2="98.6" y2="43.7"/>
			</g>
			<g>
				<linearGradient id="SVGID_7_" gradientUnits="userSpaceOnUse" x1="837.3707" y1="36.7021" x2="840.3433" y2="36.7021">
					<stop  offset="0" style="stop-color:#BFBFBF"/>
					<stop  offset="0.5215" style="stop-color:#FFFFFF"/>
					<stop  offset="0.9939" style="stop-color:#BFBFBF"/>
				</linearGradient>
				<line fill="url(#SVGID_7_)" stroke="#FFFFFF" x1="840.3" y1="36.7" x2="837.4" y2="36.7"/>
				<linearGradient id="SVGID_8_" gradientUnits="userSpaceOnUse" x1="104.606" y1="40.1858" x2="831.3882" y2="40.1858">
					<stop  offset="0" style="stop-color:#BFBFBF"/>
					<stop  offset="0.5215" style="stop-color:#FFFFFF"/>
					<stop  offset="0.9939" style="stop-color:#BFBFBF"/>
				</linearGradient>
				<line fill="url(#SVGID_8_)" stroke="#FFFFFF" stroke-dasharray="8.0488,8.0488" x1="831.4" y1="36.8" x2="104.6" y2="43.6"/>
				<linearGradient id="SVGID_9_" gradientUnits="userSpaceOnUse" x1="98.6421" y1="43.6421" x2="101.6148" y2="43.6421">
					<stop  offset="0" style="stop-color:#BFBFBF"/>
					<stop  offset="0.5215" style="stop-color:#FFFFFF"/>
					<stop  offset="0.9939" style="stop-color:#BFBFBF"/>
				</linearGradient>
				<line fill="url(#SVGID_9_)" stroke="#FFFFFF" x1="101.6" y1="43.6" x2="98.6" y2="43.7"/>
			</g>
			<g>
				<linearGradient id="SVGID_10_" gradientUnits="userSpaceOnUse" x1="837.3707" y1="53.291" x2="840.3433" y2="53.291">
					<stop  offset="0" style="stop-color:#BFBFBF"/>
					<stop  offset="0.5215" style="stop-color:#FFFFFF"/>
					<stop  offset="0.9939" style="stop-color:#BFBFBF"/>
				</linearGradient>
				<line fill="url(#SVGID_10_)" stroke="#FFFFFF" x1="840.3" y1="53.3" x2="837.4" y2="53.3"/>
				<linearGradient id="SVGID_11_" gradientUnits="userSpaceOnUse" x1="104.606" y1="48.4644" x2="831.3882" y2="48.4644">
					<stop  offset="0" style="stop-color:#BFBFBF"/>
					<stop  offset="0.5215" style="stop-color:#FFFFFF"/>
					<stop  offset="0.9939" style="stop-color:#BFBFBF"/>
				</linearGradient>
				<line fill="url(#SVGID_11_)" stroke="#FFFFFF" stroke-dasharray="8.0488,8.0488" x1="831.4" y1="53.2" x2="104.6" y2="43.7"/>
				<linearGradient id="SVGID_12_" gradientUnits="userSpaceOnUse" x1="98.6421" y1="43.6751" x2="101.6148" y2="43.6751">
					<stop  offset="0" style="stop-color:#BFBFBF"/>
					<stop  offset="0.5215" style="stop-color:#FFFFFF"/>
					<stop  offset="0.9939" style="stop-color:#BFBFBF"/>
				</linearGradient>
				<line fill="url(#SVGID_12_)" stroke="#FFFFFF" x1="101.6" y1="43.7" x2="98.6" y2="43.7"/>
			</g>
			<g>
				<linearGradient id="SVGID_13_" gradientUnits="userSpaceOnUse" x1="837.3707" y1="69.8802" x2="840.3433" y2="69.8802">
					<stop  offset="0" style="stop-color:#BFBFBF"/>
					<stop  offset="0.5215" style="stop-color:#FFFFFF"/>
					<stop  offset="0.9939" style="stop-color:#BFBFBF"/>
				</linearGradient>
				<line fill="url(#SVGID_13_)" stroke="#FFFFFF" x1="840.3" y1="69.9" x2="837.4" y2="69.8"/>
				<linearGradient id="SVGID_14_" gradientUnits="userSpaceOnUse" x1="104.606" y1="56.7417" x2="831.3882" y2="56.7417">
					<stop  offset="0" style="stop-color:#BFBFBF"/>
					<stop  offset="0.5215" style="stop-color:#FFFFFF"/>
					<stop  offset="0.9939" style="stop-color:#BFBFBF"/>
				</linearGradient>
				<line fill="url(#SVGID_14_)" stroke="#FFFFFF" stroke-dasharray="8.0488,8.0488" x1="831.4" y1="69.6" x2="104.6" y2="43.9"/>
				<linearGradient id="SVGID_15_" gradientUnits="userSpaceOnUse" x1="98.6421" y1="43.7083" x2="101.6148" y2="43.7083">
					<stop  offset="0" style="stop-color:#BFBFBF"/>
					<stop  offset="0.5215" style="stop-color:#FFFFFF"/>
					<stop  offset="0.9939" style="stop-color:#BFBFBF"/>
				</linearGradient>
				<line fill="url(#SVGID_15_)" stroke="#FFFFFF" x1="101.6" y1="43.8" x2="98.6" y2="43.7"/>
			</g>
		</g>
		<linearGradient id="SVGID_16_" gradientUnits="userSpaceOnUse" x1="413.1207" y1="39.201" x2="572.9302" y2="39.201">
			<stop  offset="0" style="stop-color:#BFBFBF"/>
			<stop  offset="0.5215" style="stop-color:#FFFFFF"/>
			<stop  offset="0.9939" style="stop-color:#BFBFBF"/>
		</linearGradient>
		<polygon fill="url(#SVGID_16_)" stroke="#FFFFFF" points="413.1,24.8 413.1,21.3 572.9,10 572.9,15.3 554.5,16.4 554.5,21.5 
			572.9,20.6 572.9,25.9 554.5,26.6 554.5,31.7 572.9,31.2 572.9,36.5 531.7,37.2 531.7,42 572.9,41.9 572.9,47.2 531.7,46.9 
			531.7,51.7 572.9,52.5 572.9,57.8 531.7,56.6 531.7,61.4 572.9,63.1 572.9,68.4 413.1,60.1 413.1,56.6 431.6,57.3 431.6,53.6 
			413.1,53 413.1,49.5 423.2,49.7 423.2,46.1 413.1,46 413.1,42.5 423.2,42.4 423.2,38.8 413.1,38.9 413.1,35.4 444.5,34.6 
			444.5,30.7 413.1,31.9 413.1,28.4 444.5,26.8 444.5,23 		"/>
	</g>
	<g>
		<path fill="none" stroke="#FFFFFF" stroke-width="2" d="M85.7,29.5c2.5,4.8,3.8,10.3,3.8,16.1c0,4.9-1,9.5-2.7,13.7"/>
		<line fill="none" stroke="#FFFFFF" stroke-width="2" x1="53.9" y1="45.6" x2="97.4" y2="23.6"/>
		<line fill="none" stroke="#FFFFFF" stroke-width="2" x1="53.9" y1="45.6" x2="97.4" y2="63.7"/>
	</g>
	<path fill="none" stroke="#FFFFFF" d="M57.7,54.3"/>
	<path fill="none" stroke="#FFFFFF" d="M56.6,24.5"/>
	<g>
		<g>
			<rect x="848.3" y="0" fill="#FFFFFF" width="9.9" height="9.9"/>
		</g>
		<g>
			<rect x="848.3" y="16.2" fill="#FFFFFF" width="9.9" height="9.9"/>
		</g>
		<g>
			<rect x="848.3" y="32.3" fill="#FFFFFF" width="9.9" height="9.9"/>
		</g>
		<g>
			<rect x="848.3" y="48.5" fill="#FFFFFF" width="9.9" height="9.9"/>
		</g>
		<g>
			<rect x="848.3" y="64.7" fill="#FFFFFF" width="9.9" height="9.8"/>
		</g>
		<g>
			<rect x="880.6" y="0" fill="#FFFFFF" width="42.2" height="9.9"/>
		</g>
		<g>
			<rect x="880.6" y="32.3" fill="#FFFFFF" width="42.2" height="9.9"/>
		</g>
		<g>
			<rect x="880.6" y="48.5" fill="#FFFFFF" width="9.8" height="9.9"/>
		</g>
		<g>
			<rect x="880.6" y="64.7" fill="#FFFFFF" width="42.2" height="9.8"/>
		</g>
		<g>
			<rect x="913" y="16.2" fill="#FFFFFF" width="9.8" height="9.9"/>
		</g>
		<g>
			<rect x="945.3" y="64.7" fill="#FFFFFF" width="9.8" height="9.8"/>
		</g>
		<g>
			<rect x="977.7" y="0" fill="#FFFFFF" width="42.2" height="9.9"/>
		</g>
		<g>
			<rect x="977.7" y="32.3" fill="#FFFFFF" width="42.2" height="9.9"/>
		</g>
		<g>
			<rect x="977.7" y="64.7" fill="#FFFFFF" width="42.2" height="9.8"/>
		</g>
		<g>
			<rect x="1010" y="16.2" fill="#FFFFFF" width="9.9" height="9.9"/>
		</g>
		<g>
			<rect x="1010" y="48.5" fill="#FFFFFF" width="9.9" height="9.9"/>
		</g>
		<g>
			<rect x="1042.3" y="0" fill="#FFFFFF" width="9.9" height="9.9"/>
		</g>
		<g>
			<rect x="1042.3" y="16.2" fill="#FFFFFF" width="9.9" height="9.9"/>
		</g>
		<g>
			<rect x="1042.3" y="32.3" fill="#FFFFFF" width="9.9" height="9.9"/>
		</g>
		<g>
			<rect x="1042.3" y="48.5" fill="#FFFFFF" width="9.9" height="9.9"/>
		</g>
		<g>
			<rect x="1042.3" y="64.7" fill="#FFFFFF" width="9.9" height="9.8"/>
		</g>
	</g>
</g>
<text transform="matrix(1 0 0 1 201.3795 107.124)" fill="#FFFFFF" font-family="'Helvetica'" font-size="12">Focus distance 20 cm</text>
<g>
	<g>
		<line fill="none" stroke="#FFFFFF" x1="23.1" y1="103.7" x2="172.2" y2="103.7"/>
		<g>
			<rect x="22.6" y="100.5" fill="#FFFFFF" width="1" height="6.5"/>
		</g>
	</g>
</g>
<g>
	<g>
		<line fill="none" stroke="#FFFFFF" x1="347.6" y1="103.7" x2="496.6" y2="103.7"/>
		<g>
			<rect x="496.1" y="100.5" fill="#FFFFFF" width="1" height="6.5"/>
		</g>
	</g>
</g>
<g>
	<rect x="1" y="30.1" fill="#FFFFFF" stroke="#FFFFFF" stroke-width="2" width="11.5" height="41"/>
	<path fill="#FFFFFF" stroke="#FFFFFF" stroke-width="2" d="M7,23.8c0.2-0.7-0.4-2.7-1.1-3.4c-1.2-1.3-2.3-2.8-1.6-5
		c0.7-2.3,3.5-2.7,4.1-5.1c-0.4,1.7-1,2.6-0.1,4.4c0.7,1.3,1.4,2.2,1.3,3.8c-0.2,1.7-1.4,2.8-2.1,4.3L7,23.8z"/>
</g>
<text transform="matrix(1 0 0 1 29.1675 50.7637)" fill="#FFFFFF" font-family="'Helvetica'" font-size="12">or</text>
</svg>
